<?xml version="1.0" encoding="UTF-8" standalone="no"?>
<svg
   xmlns:dc="http://purl.org/dc/elements/1.1/"
   xmlns:cc="http://creativecommons.org/ns#"
   xmlns:rdf="http://www.w3.org/1999/02/22-rdf-syntax-ns#"
   xmlns:svg="http://www.w3.org/2000/svg"
   xmlns="http://www.w3.org/2000/svg"
   xmlns:sodipodi="http://sodipodi.sourceforge.net/DTD/sodipodi-0.dtd"
   xmlns:inkscape="http://www.inkscape.org/namespaces/inkscape"
   width="210mm"
   height="297mm"
   viewBox="0 0 210 297"
   version="1.1"
   id="svg8"
   inkscape:version="1.0.2-2 (e86c870879, 2021-01-15)"
   sodipodi:docname="location.svg">
  <defs
     id="defs2" />
  <sodipodi:namedview
     id="base"
     pagecolor="#ffffff"
     bordercolor="#666666"
     borderopacity="1.0"
     inkscape:pageopacity="0.0"
     inkscape:pageshadow="2"
     inkscape:zoom="0.7"
     inkscape:cx="452.02434"
     inkscape:cy="604.55089"
     inkscape:document-units="mm"
     inkscape:current-layer="layer1"
     inkscape:document-rotation="0"
     showgrid="false"
     inkscape:window-width="1431"
     inkscape:window-height="1020"
     inkscape:window-x="192"
     inkscape:window-y="0"
     inkscape:window-maximized="0" />
  <metadata
     id="metadata5">
    <rdf:RDF>
      <cc:Work
         rdf:about="">
        <dc:format>image/svg+xml</dc:format>
        <dc:type
           rdf:resource="http://purl.org/dc/dcmitype/StillImage" />
        <dc:title></dc:title>
      </cc:Work>
    </rdf:RDF>
  </metadata>
  <g
     inkscape:label="Layer 1"
     inkscape:groupmode="layer"
     id="layer1">
    <path
       style="fill:#000000;stroke-width:0.0799398"
       d="m 122.26451,92.524407 c -3.41583,-4.66065 -23.547805,-35.99235 -25.091236,-39.04986 -0.50014,-0.99077 -1.09819,-2.87418 -1.47003,-4.62948 -0.99613,-4.70232 -0.84085,-9.56962 0.44797,-14.041572 1.04511,-3.62633 2.887261,-7.09328 5.298006,-9.97089 0.63234,-0.75479 2.42022,-2.55698 3.16678,-3.19211 5.29762,-4.50692 12.09738,-6.95436 18.7059,-6.73282 7.31083,0.24509 13.85557,2.96656 18.85169,7.83903 7.72406,7.5329 10.44966,18.916022 6.9564,29.052512 -0.45256,1.31321 -0.71267,1.839 -1.78605,3.61036 -5.66873,9.35489 -23.59899,37.01558 -24.45462,37.72569 -0.0885,0.0735 -0.21107,-0.0463 -0.62481,-0.61086 z m 2.43504,-40.31833 c 1.95721,-0.39357 3.73556,-1.34213 5.10176,-2.72125 1.76703,-1.78373 2.63372,-3.99125 2.63372,-6.70827 0,-2.88434 -0.87192,-5.176452 -2.64277,-6.947292 -0.64052,-0.64053 -1.73236,-1.4293 -2.54767,-1.8405 -2.24753,-1.13356 -5.20138,-1.36723 -7.51479,-0.59447 -1.46045,0.48784 -2.64393,1.22641 -3.76235,2.34797 -1.89762,1.90292 -2.79699,4.116742 -2.79764,6.886462 -5.6e-4,2.22079 0.47559,3.84531 1.63927,5.5933 1.63727,2.45937 3.97358,3.82523 7.15384,4.18229 0.53756,0.0604 1.96478,-0.043 2.73663,-0.19824 z"
       id="path847"
       inkscape:export-xdpi="96"
       inkscape:export-ydpi="96" />
    <path
       style="fill:#000000;stroke-width:0.0954484"
       d="m 48.431902,223.9579 c -2.243555,-0.48681 -4.02,-2.31022 -4.452385,-4.57009 -0.214156,-1.11929 -0.214156,-62.36873 0,-63.48802 0.429193,-2.24319 2.060576,-3.95438 4.321145,-4.53253 0.669492,-0.17123 1.091763,-0.18466 5.808685,-0.18466 h 5.086718 l 0.02835,-3.41226 0.02836,-3.41228 0.266305,-0.5423 c 0.863986,-1.75937 3.184504,-2.20139 4.642377,-0.88429 0.527624,0.47668 0.828423,1.01476 0.954014,1.70661 0.05924,0.32614 0.102807,1.83416 0.102807,3.55544 v 2.98908 H 81.34351 97.46874 l 0.0294,-3.41226 0.0294,-3.41228 0.32582,-0.6009 c 0.55706,-1.02737 1.47633,-1.57739 2.63746,-1.57809 1.18451,-7.1e-4 2.19188,0.64836 2.70532,1.74312 l 0.24918,0.53132 0.0294,3.36455 0.0294,3.36454 5.74518,0.001 c 6.31198,0.002 6.50281,0.0161 7.62217,0.57113 1.65674,0.82147 2.67911,2.0868 3.139,3.88493 0.18242,0.71329 0.18594,1.31743 0.18594,32.00347 0,30.81599 -0.003,31.28729 -0.18823,32.0124 -0.55061,2.15287 -2.10769,3.70996 -4.26056,4.26057 -0.72578,0.18562 -1.19164,0.18811 -33.72188,0.18063 -27.691228,-0.006 -33.083508,-0.0288 -33.593852,-0.1395 z m 65.274688,-4.45394 c 0.68609,-0.33696 1.30153,-0.94914 1.61165,-1.6031 l 0.24894,-0.52497 0.0245,-22.21555 0.0245,-22.21556 H 82.01676 48.4174 l 0.02489,21.92921 0.02489,21.92922 0.304003,0.64173 c 0.523656,1.10541 1.584431,2.00421 2.66613,2.25901 0.22059,0.052 12.789451,0.0814 31.057137,0.0727 l 30.68658,-0.0146 z m -55.790087,-4.88763 c -0.351023,-0.15601 -0.669442,-0.49218 -0.804946,-0.84981 -0.06501,-0.17148 -0.101811,-1.46353 -0.101811,-3.57092 v -3.30222 l 0.237272,-0.40488 c 0.15821,-0.26996 0.374984,-0.47153 0.650546,-0.60494 0.394024,-0.19074 0.55976,-0.20004 3.556797,-0.19953 1.768477,2.9e-4 3.291494,0.0416 3.481818,0.0945 0.383779,0.10661 0.889181,0.58534 1.039845,0.98496 0.06414,0.1701 0.101298,1.45156 0.101298,3.4927 0,3.18999 -0.0022,3.22845 -0.221918,3.64468 -0.138348,0.26225 -0.363,0.50095 -0.596549,0.63385 -0.368238,0.20956 -0.431665,0.21316 -3.715317,0.21103 -2.573316,-10e-4 -3.406466,-0.0314 -3.627035,-0.12944 z m 13.792261,0.0659 c -0.334241,-0.12559 -0.685113,-0.44925 -0.861194,-0.79439 -0.177056,-0.34706 -0.188737,-0.57069 -0.188737,-3.61278 0,-2.05915 0.03709,-3.34091 0.101522,-3.51152 0.138152,-0.36566 0.550048,-0.78967 0.921483,-0.94859 0.441867,-0.18906 6.571322,-0.19121 7.023052,-0.002 0.35443,0.14809 0.89826,0.72849 0.97638,1.04203 0.0292,0.11716 0.0405,1.71973 0.0252,3.56127 l -0.0279,3.34826 -0.25709,0.33693 c -0.49208,0.64487 -0.53254,0.651 -4.243393,0.64259 -1.829444,-0.004 -3.390686,-0.0317 -3.46943,-0.0613 z m 13.417616,-0.14556 c -0.23212,-0.13327 -0.45904,-0.3751 -0.59655,-0.63575 -0.2197,-0.41647 -0.22191,-0.45315 -0.22176,-3.67476 1.9e-4,-3.65231 -0.002,-3.64019 0.70056,-4.20178 l 0.36663,-0.29313 3.35627,-0.0283 3.35628,-0.0283 0.42908,0.22637 c 0.26873,0.14177 0.50946,0.36637 0.64417,0.601 0.2136,0.37207 0.2149,0.39821 0.19089,3.82777 -0.0232,3.31895 -0.0318,3.46337 -0.22098,3.71658 -0.10823,0.14489 -0.31534,0.352 -0.46024,0.46024 -0.2532,0.18915 -0.39762,0.19773 -3.71658,0.22097 -3.42956,0.024 -3.45569,0.0227 -3.82777,-0.19089 z M 58.262295,200.62455 c -0.406102,-0.0959 -0.762197,-0.35748 -1.037788,-0.76242 -0.212726,-0.31256 -0.214761,-0.34752 -0.214761,-3.69458 0,-3.61698 0.0036,-3.64752 0.493339,-4.10472 0.516037,-0.48182 0.709232,-0.50596 4.013519,-0.50147 3.721342,0.005 3.908469,0.0465 4.379975,0.97036 0.166818,0.32683 0.180743,0.60291 0.180743,3.58294 0,3.16023 -0.0043,3.23774 -0.214761,3.64911 -0.252965,0.49506 -0.566066,0.74557 -1.081172,0.86503 -0.456383,0.10586 -6.068273,0.10219 -6.519094,-0.004 z m 27.321255,0.005 c -0.4606,-0.10987 -0.89781,-0.47036 -1.09377,-0.90184 -0.16194,-0.35661 -0.17767,-0.67427 -0.17767,-3.58875 0,-2.90062 0.0163,-3.23296 0.17532,-3.57931 0.0964,-0.20998 0.26445,-0.46103 0.37338,-0.5579 0.44812,-0.39846 0.78604,-0.43573 3.99052,-0.44011 3.26707,-0.004 3.50725,0.0234 3.98385,0.46218 0.54293,0.49984 0.54031,0.47972 0.54031,4.14401 0,3.34705 -0.002,3.38202 -0.21476,3.69458 -0.28555,0.41957 -0.62626,0.66116 -1.08118,0.76668 -0.44457,0.1031 -6.06401,0.1035 -6.496,4.7e-4 z m 13.61776,-0.0211 c -0.4965,-0.14246 -0.82385,-0.41594 -1.04522,-0.87322 -0.18979,-0.39206 -0.19899,-0.56025 -0.19699,-3.6025 0.002,-2.90004 0.0182,-3.22677 0.1789,-3.58053 0.21188,-0.46651 0.57029,-0.76744 1.07629,-0.90369 0.23707,-0.0639 1.53285,-0.0901 3.55017,-0.0719 l 3.17683,0.0286 0.38355,0.25396 c 0.73675,0.48782 0.74746,0.54916 0.74746,4.27982 0,2.93001 -0.018,3.3259 -0.16361,3.5918 -0.22201,0.40552 -0.67536,0.77101 -1.10404,0.89007 -0.45729,0.127 -6.15475,0.11629 -6.60334,-0.0124 z m -27.540273,-0.11683 c -0.356723,-0.16152 -0.766974,-0.59267 -0.900682,-0.94657 -0.06443,-0.17061 -0.101522,-1.45237 -0.101522,-3.51152 0,-3.04209 0.01169,-3.26572 0.188737,-3.61278 0.103802,-0.20347 0.329299,-0.4702 0.501102,-0.59274 l 0.312365,-0.2228 h 3.531587 3.531576 l 0.31237,0.2228 c 0.1718,0.12254 0.3973,0.38927 0.5011,0.59274 0.17727,0.34748 0.18873,0.57095 0.18873,3.67759 0,3.15939 -0.009,3.32326 -0.19598,3.65633 -0.10779,0.19179 -0.35154,0.45535 -0.54167,0.58568 l -0.34568,0.23699 -3.347841,0.022 c -2.653561,0.0174 -3.407231,-0.005 -3.634192,-0.10769 z M 58.262295,186.97546 c -0.406102,-0.0959 -0.762197,-0.35748 -1.037788,-0.76241 -0.212726,-0.31256 -0.214761,-0.34753 -0.214761,-3.69458 0,-3.66429 -0.0029,-3.64418 0.540308,-4.14401 0.476607,-0.43879 0.716787,-0.46665 3.983859,-0.46218 3.702027,0.005 3.891514,0.0472 4.362666,0.97035 0.166818,0.32684 0.180743,0.60292 0.180743,3.58294 0,3.16024 -0.0043,3.23775 -0.214761,3.64911 -0.252965,0.49506 -0.566066,0.74557 -1.081172,0.86504 -0.456383,0.10585 -6.068273,0.10218 -6.519094,-0.004 z m 13.68509,0.01 c -0.449169,-0.11297 -0.687111,-0.27111 -0.974462,-0.64769 l -0.266363,-0.34906 -0.02879,-3.25283 c -0.0158,-1.78905 -0.0036,-3.39114 0.02763,-3.56021 0.07555,-0.4116 0.479716,-0.87373 0.951634,-1.08809 0.349284,-0.15866 0.683402,-0.17522 3.535527,-0.17522 2.860759,0 3.184809,0.0162 3.531569,0.17621 0.4417,0.20385 0.75564,0.51751 0.9004,0.8996 0.0648,0.17108 0.10181,1.44328 0.10181,3.50151 0,3.35255 -0.0231,3.57631 -0.41201,3.99403 -0.49728,0.53409 -0.52764,0.53839 -3.930868,0.55676 -1.732389,0.009 -3.278645,-0.0154 -3.436134,-0.055 z m 13.636165,-0.005 c -0.4606,-0.10987 -0.89781,-0.47036 -1.09377,-0.90185 -0.16189,-0.35648 -0.17786,-0.67766 -0.17976,-3.6164 -0.003,-4.77576 -0.23531,-4.54313 4.54131,-4.54966 3.26707,-0.004 3.50725,0.0234 3.98385,0.46217 0.54293,0.49984 0.54031,0.47973 0.54031,4.14401 0,3.34706 -0.002,3.38203 -0.21476,3.69459 -0.28555,0.41957 -0.62626,0.66116 -1.08118,0.76667 -0.44457,0.10311 -6.06401,0.10351 -6.496,4.7e-4 z m 13.61776,-0.0182 c -0.4992,-0.14767 -0.82461,-0.42045 -1.04522,-0.87616 -0.18979,-0.39206 -0.19899,-0.56025 -0.19699,-3.60251 0.002,-2.90003 0.0182,-3.22676 0.1789,-3.58053 0.21188,-0.4665 0.57029,-0.76743 1.07629,-0.90368 0.23707,-0.0639 1.53285,-0.0901 3.55017,-0.0719 l 3.17683,0.0286 0.38355,0.25396 c 0.72437,0.47963 0.74366,0.58055 0.7762,4.06062 0.0308,3.29287 -0.004,3.63212 -0.42441,4.13167 -0.52084,0.61899 -0.52385,0.61947 -3.99494,0.63953 -1.92769,0.0111 -3.27806,-0.0198 -3.48038,-0.0796 z M 63.144181,163.16428 c 1.829191,-0.38761 3.272533,-1.89655 3.607619,-3.77159 0.23572,-1.319 -0.191558,-2.80408 -1.085198,-3.77174 l -0.440734,-0.47724 -0.0036,1.72439 c -0.0058,2.52159 -0.166601,3.14785 -1.022023,3.97392 -0.851851,0.82263 -2.218209,1.03913 -3.292332,0.52166 -0.620264,-0.29881 -1.156763,-0.84739 -1.450939,-1.48361 -0.185504,-0.40119 -0.206767,-0.6343 -0.234487,-2.57067 -0.02266,-1.58196 -0.05945,-2.12027 -0.143167,-2.0937 -0.21624,0.0686 -1.002088,1.20667 -1.214158,1.75829 -0.266954,0.69437 -0.354356,1.94441 -0.188174,2.69129 0.326925,1.46927 1.490471,2.81199 2.868604,3.31036 0.916194,0.33131 1.667987,0.38588 2.598777,0.18864 z m 38.274709,0 c 3.46323,-0.73387 4.88479,-4.99885 2.52151,-7.56504 l -0.39968,-0.434 -0.0478,2.08909 c -0.0458,2.00404 -0.0579,2.1108 -0.29778,2.62232 -0.51782,1.1045 -1.51631,1.74809 -2.71616,1.75074 -1.19001,0.003 -2.17961,-0.63296 -2.73416,-1.75607 -0.19792,-0.40083 -0.216,-0.5877 -0.24724,-2.55617 -0.0185,-1.16805 -0.0694,-2.12372 -0.11309,-2.12372 -0.12715,0 -0.82765,0.92445 -1.05258,1.38909 -0.48045,0.9925 -0.60173,2.18763 -0.32846,3.23681 0.43073,1.65365 1.82216,2.97615 3.51995,3.34556 0.76342,0.16611 1.11695,0.16637 1.89549,0.001 z"
       id="path863"
       inkscape:export-xdpi="96"
       inkscape:export-ydpi="96" />
  </g>
</svg>
